<svg xmlns="http://www.w3.org/2000/svg" viewBox="0 0 64 64"><defs><style>.cls-1{fill:#0437ff;}</style></defs><g id="_29_Cash" data-name="29_Cash"><path class="cls-1" d="M8,10a.67.67,0,0,0-.67.67,2,2,0,0,1-2,2,.66.66,0,0,0-.66.66.67.67,0,0,0,.66.67,3.34,3.34,0,0,0,3.34-3.33A.67.67,0,0,0,8,10Z"/><path class="cls-1" d="M37.33,14a.67.67,0,0,0,.67-.67.66.66,0,0,0-.67-.66,2,2,0,0,1-2-2,.67.67,0,1,0-1.33,0A3.33,3.33,0,0,0,37.33,14Z"/><path class="cls-1" d="M5.33,23.33a.67.67,0,0,0,0,1.34,2,2,0,0,1,2,2,.67.67,0,0,0,1.34,0A3.35,3.35,0,0,0,5.33,23.33Z"/><path class="cls-1" d="M34.67,27.33a.66.66,0,0,0,.66-.66,2,2,0,0,1,2-2,.67.67,0,0,0,0-1.34A3.34,3.34,0,0,0,34,26.67.66.66,0,0,0,34.67,27.33Z"/><path class="cls-1" d="M5.33,30h32a3.34,3.34,0,0,0,3.34-3.33v-2H44.8A3.29,3.29,0,0,0,48,27.33a3.33,3.33,0,0,0,0-6.66,3.29,3.29,0,0,0-3.2,2.66H40.67V14h2.46a6,6,0,0,0,4.24-1.76L49.58,10a4.73,4.73,0,0,1,3.3-1.36h2.59a3.28,3.28,0,0,0,3.2,2.66,3.33,3.33,0,0,0,0-6.66,3.28,3.28,0,0,0-3.2,2.66H52.88a6.05,6.05,0,0,0-4.25,1.76L46.42,11.3a4.69,4.69,0,0,1-3.29,1.37H40.67v-2a3.35,3.35,0,0,0-3.34-3.34h-24a.67.67,0,0,0,0,1.34h24a2,2,0,0,1,2,2v16a2,2,0,0,1-2,2h-32a2,2,0,0,1-2-2v-16a2,2,0,0,1,2-2h5.34a.67.67,0,0,0,0-1.34H5.33A3.34,3.34,0,0,0,2,10.67v16A3.33,3.33,0,0,0,5.33,30ZM48,22a2,2,0,1,1-2,2A2,2,0,0,1,48,22ZM58.67,6a2,2,0,1,1-2,2A2,2,0,0,1,58.67,6Z"/><path class="cls-1" d="M24,23.33H16a.67.67,0,1,0,0,1.34h4.67v2a.67.67,0,0,0,1.33,0v-2h2A3.34,3.34,0,0,0,24,18H18.67a2,2,0,0,1,0-4h8a.67.67,0,0,0,.66-.67.66.66,0,0,0-.66-.66H22v-2a.67.67,0,1,0-1.33,0v2h-2a3.33,3.33,0,1,0,0,6.66H24a2,2,0,0,1,0,4Z"/><path class="cls-1" d="M29.33,36.67a.66.66,0,0,0-.66.66,2,2,0,0,1-2,2,.67.67,0,0,0,0,1.34A3.34,3.34,0,0,0,30,37.33.66.66,0,0,0,29.33,36.67Z"/><path class="cls-1" d="M58.67,40.67a.67.67,0,0,0,0-1.34,2,2,0,0,1-2-2,.67.67,0,0,0-1.34,0A3.35,3.35,0,0,0,58.67,40.67Z"/><path class="cls-1" d="M26.67,50a.67.67,0,0,0-.67.67.66.66,0,0,0,.67.66,2,2,0,0,1,2,2,.67.67,0,1,0,1.33,0A3.33,3.33,0,0,0,26.67,50Z"/><path class="cls-1" d="M56,54a.67.67,0,0,0,.67-.67,2,2,0,0,1,2-2,.66.66,0,0,0,.66-.66.67.67,0,0,0-.66-.67,3.34,3.34,0,0,0-3.34,3.33A.67.67,0,0,0,56,54Z"/><path class="cls-1" d="M32,55.33H26.67a2,2,0,0,1-2-2v-16a2,2,0,0,1,2-2H48a.66.66,0,0,0,.67-.66A.67.67,0,0,0,48,34H26.67a3.34,3.34,0,0,0-3.34,3.33V42H19.2A3.3,3.3,0,0,0,16,39.33,3.34,3.34,0,0,0,16,46a3.3,3.3,0,0,0,3.2-2.67h4.13V50H20.87a6,6,0,0,0-4.24,1.76L14.42,54a4.73,4.73,0,0,1-3.3,1.36H8.53a3.28,3.28,0,0,0-3.2-2.66,3.33,3.33,0,1,0,0,6.66,3.28,3.28,0,0,0,3.2-2.66h2.59a6.05,6.05,0,0,0,4.25-1.76l2.21-2.21a4.69,4.69,0,0,1,3.29-1.37h2.46v2a3.35,3.35,0,0,0,3.34,3.34H32a.67.67,0,0,0,0-1.34ZM16,44.67a2,2,0,1,1,2-2A2,2,0,0,1,16,44.67ZM5.33,58a2,2,0,1,1,2-2A2,2,0,0,1,5.33,58Z"/><path class="cls-1" d="M58.67,34h-8a.67.67,0,0,0-.67.67.66.66,0,0,0,.67.66h8a2,2,0,0,1,2,2v16a2,2,0,0,1-2,2h-24a.67.67,0,0,0,0,1.34h24A3.34,3.34,0,0,0,62,53.33v-16A3.33,3.33,0,0,0,58.67,34Z"/><path class="cls-1" d="M40,40.67h8a.67.67,0,0,0,0-1.34H43.33v-2a.67.67,0,0,0-1.33,0v2H40A3.34,3.34,0,0,0,40,46h5.33a2,2,0,0,1,0,4h-8a.67.67,0,0,0-.66.67.66.66,0,0,0,.66.66H42v2a.67.67,0,1,0,1.33,0v-2h2a3.33,3.33,0,1,0,0-6.66H40a2,2,0,0,1,0-4Z"/></g></svg>