<svg width="180" height="180" viewBox="-1 -1 40 40" fill="none" xmlns="http://www.w3.org/2000/svg">
<path d="M29.2347 8.30438C28.5624 7.62468 28.1044 6.7584 27.9186 5.81514C27.7327 4.87187 27.8275 3.89401 28.1909 3.00527C28.5542 2.11654 29.1698 1.35687 29.9598 0.82238C30.7498 0.287888 31.6786 0.00259399 32.6288 0.00259399C33.579 0.00259399 34.5078 0.287888 35.2978 0.82238C36.0878 1.35687 36.7034 2.11654 37.0667 3.00527C37.4301 3.89401 37.5248 4.87187 37.339 5.81514C37.1532 6.7584 36.6952 7.62468 36.0229 8.30438C35.1223 9.21484 33.9016 9.72624 32.6288 9.72624C31.356 9.72624 30.1352 9.21484 29.2347 8.30438Z
M1.41278 29.7158C0.740472 30.3955 0.282441 31.2618 0.0966337 32.2051C-0.089174 33.1483 0.00559129 34.1262 0.36894 35.0149C0.732289 35.9037 1.34789 36.6634 2.13786 37.1978C2.92783 37.7323 3.85667 38.0176 4.80686 38.0176C5.75705 38.0176 6.68589 37.7323 7.47586 37.1978C8.26583 36.6634 8.88144 35.9037 9.24479 35.0149C9.60814 34.1262 9.7029 33.1483 9.51709 32.2051C9.33129 31.2618 8.87326 30.3955 8.20095 29.7158C7.75618 29.2628 7.22757 28.9029 6.64533 28.6567C6.06309 28.4105 5.43864 28.2828 4.80764 28.281C4.17665 28.2792 3.55149 28.4033 2.96788 28.6461C2.38428 28.889 1.85367 29.2459 1.40637 29.6964L1.41278 29.7158Z
M18.8763 28.0952C16.4556 27.9672 14.1708 26.9233 12.4747 25.1703C10.7785 23.4174 9.79488 21.0834 9.71869 18.6309C9.65112 17.6928 9.3181 16.7942 8.75942 16.0425C8.20074 15.2909 7.44006 14.718 6.56828 14.3924C5.69651 14.0667 4.75054 14.0021 3.84344 14.2062C2.93635 14.4103 2.10651 14.8745 1.45312 15.5434C0.799739 16.2122 0.350454 17.0574 0.158972 17.9778C-0.0325106 18.8982 0.0419103 19.855 0.373342 20.7338C0.704774 21.6125 1.27919 22.3761 2.02793 22.9332C2.77667 23.4902 3.66806 23.8173 4.59553 23.8752C7.00562 23.971 9.29353 24.9742 11.0111 26.6883C12.7287 28.4024 13.7523 30.7038 13.8813 33.1418C13.9148 34.095 14.2228 35.0175 14.7674 35.7959C15.3119 36.5743 16.0693 37.1747 16.9464 37.5232C17.8235 37.8717 18.7821 37.9533 19.7043 37.7577C20.6265 37.5622 21.4723 37.0982 22.1375 36.4226C22.8027 35.7471 23.2584 34.8896 23.4486 33.9554C23.6388 33.0212 23.5552 32.0511 23.2081 31.1644C22.8609 30.2777 22.2654 29.513 21.4947 28.9642C20.724 28.4155 19.8117 28.1067 18.8699 28.0758L18.8763 28.0952Z
M32.7729 28.0952C30.3522 27.9672 28.0673 26.9233 26.3712 25.1703C24.6751 23.4174 23.6914 21.0834 23.6152 18.6309C23.5331 17.4997 23.0644 16.4327 22.2896 15.6133C22.2288 15.5453 22.1647 15.4804 22.0975 15.4156C21.2354 14.5724 20.0938 14.0847 18.8955 14.0478C16.4748 13.9183 14.1904 12.8734 12.4944 11.1201C10.7985 9.36678 9.81476 7.03281 9.7379 4.58023C9.67033 3.64209 9.33731 2.7435 8.77863 1.99186C8.21996 1.24022 7.45927 0.667341 6.58749 0.341698C5.71572 0.0160561 4.76975 -0.0485703 3.86265 0.155543C2.95556 0.359657 2.12572 0.823875 1.47233 1.49271C0.81895 2.16154 0.369665 3.00669 0.178183 3.92713C-0.0132995 4.84756 0.0611263 5.80435 0.392558 6.68311C0.72399 7.56187 1.29841 8.32542 2.04715 8.8825C2.79589 9.43958 3.68727 9.76662 4.61475 9.82451C7.0253 9.9189 9.31403 10.9216 11.0319 12.636C12.7498 14.3504 13.7729 16.6526 13.9005 19.0911C13.9288 20.2768 14.3843 21.4111 15.1812 22.2805C15.2293 22.3356 15.2773 22.3907 15.3317 22.4426L15.367 22.475C16.2004 23.3221 17.313 23.8287 18.4921 23.8979C20.9022 23.9937 23.1901 24.9969 24.9077 26.711C26.6253 28.4251 27.6488 30.7265 27.7778 33.1645C27.8157 34.1165 28.1273 35.0367 28.6744 35.812C29.2215 36.5873 29.9802 37.1842 30.8576 37.5293C31.7349 37.8744 32.6927 37.9528 33.6134 37.7548C34.5341 37.5569 35.3778 37.0912 36.0408 36.4149C36.7038 35.7385 37.1574 34.881 37.3459 33.9475C37.5344 33.014 37.4496 32.0451 37.1019 31.1597C36.7543 30.2743 36.1589 29.5108 35.3887 28.963C34.6186 28.4152 33.7072 28.1068 32.7665 28.0758L32.7729 28.0952Z
M32.7665 14.0122C30.3457 13.8826 28.0613 12.8378 26.3654 11.0844C24.6695 9.33113 23.6857 6.99715 23.6088 4.54457C23.5413 3.60644 23.2082 2.70784 22.6496 1.9562C22.0909 1.20457 21.3302 0.631687 20.4584 0.306045C19.5867 -0.0195975 18.6407 -0.0842238 17.7336 0.11989C16.8265 0.324004 15.9967 0.788222 15.3433 1.45705C14.6899 2.12589 14.2406 2.97104 14.0491 3.89147C13.8576 4.81191 13.9321 5.76869 14.2635 6.64745C14.5949 7.52621 15.1693 8.28977 15.9181 8.84685C16.6668 9.40393 17.5582 9.73096 18.4857 9.78886C20.8962 9.88325 23.185 10.886 24.9029 12.6003C26.6208 14.3147 27.6438 16.617 27.7714 19.0555C27.7987 20.011 28.1018 20.9376 28.6434 21.7207C29.1849 22.5039 29.9412 23.1093 30.8188 23.4623C31.6964 23.8154 32.657 23.9005 33.5818 23.7072C34.5067 23.514 35.3554 23.0508 36.0232 22.3748C36.691 21.6989 37.1486 20.8397 37.3395 19.9035C37.5304 18.9673 37.4463 17.995 37.0976 17.1067C36.7488 16.2183 36.1507 15.4527 35.377 14.9046C34.6034 14.3564 33.688 14.0495 32.7441 14.0219L32.7665 14.0122Z" fill="url(#gradient)"/>
<defs>
<linearGradient id="gradient" x1="0" y1="38" x2="38" y2="0" gradientUnits="userSpaceOnUse">
<stop offset="0.075" stop-color="#00F5FF"/>
<stop offset="0.149" stop-color="#01DBFF"/>
<stop offset="0.299" stop-color="#02B4FF"/>
<stop offset="0.463" stop-color="#0392FE"/>
<stop offset="0.627" stop-color="#0476FE"/>
<stop offset="0.791" stop-color="#0561FE"/>
<stop offset="0.985" stop-color="#0652FE"/>
</linearGradient>
</defs>
</svg>