<svg width="370" height="352" viewBox="0 0 370 352" fill="none" xmlns="http://www.w3.org/2000/svg">
<path d="M258.285 81.4444L258.29 81.4223C253.496 99.2097 242.389 114.547 227.126 124.455C211.454 134.698 192.534 138.444 174.245 134.925C165.849 133.678 157.289 135.455 150.037 139.948C149.439 140.3 148.853 140.674 148.273 141.067L148.182 141.13C140.59 146.254 135.152 154.088 132.936 163.092V163.092C128.142 180.88 117.035 196.217 101.773 206.125C86.0982 216.368 67.1776 220.113 48.8866 216.594C39.7376 215.244 30.4255 217.474 22.8203 222.835C15.2151 228.197 9.88003 236.293 7.8864 245.497C5.79479 255.165 7.5553 265.283 12.7806 273.625C18.0059 281.967 26.268 287.85 35.7494 289.98C44.8706 292.026 54.4151 290.44 62.4287 285.545C70.4422 280.651 76.3185 272.819 78.8546 263.652V263.652C83.5004 245.47 94.723 229.751 110.267 219.656C125.501 209.705 143.816 205.878 161.658 208.916L161.604 208.83C170.328 210.525 179.36 208.911 187.001 204.292C187.482 204.017 187.957 203.73 188.428 203.431L188.737 203.223C196.278 198.327 201.792 190.776 204.231 182.006V182.006C208.876 163.823 220.099 148.105 235.643 138.01C250.877 128.059 269.192 124.232 287.034 127.27L286.98 127.184C296.336 129 306.019 127.025 313.973 121.68C321.927 116.335 327.525 108.04 329.579 98.5561C330.615 93.7684 330.716 88.8198 329.877 83.9928C329.037 79.1658 327.273 74.5551 324.685 70.4239C322.098 66.2926 318.737 62.7219 314.795 59.9156C310.854 57.1092 306.408 55.1223 301.712 54.0682C292.404 51.9674 282.659 53.6525 274.548 58.7652C266.438 63.8778 260.603 72.0145 258.285 81.4444V81.4444Z" stroke="#0437FF" stroke-width="2" stroke-miterlimit="10"/>
<path d="M290.728 88.7318L290.712 88.7049C285.918 106.491 274.813 121.829 259.553 131.739C243.878 141.98 224.958 145.726 206.667 142.208C198.275 140.971 189.722 142.753 182.478 147.249C181.879 147.601 181.294 147.974 180.714 148.367L180.623 148.43C173.031 153.555 167.592 161.389 165.377 170.393L165.355 170.388C160.561 188.175 149.454 203.513 134.192 213.421C118.517 223.663 99.5966 227.409 81.3056 223.89C72.166 222.544 62.8642 224.769 55.2643 230.121C47.6644 235.472 42.328 243.554 40.3246 252.746C38.233 262.414 39.9935 272.532 45.2189 280.874C50.4442 289.216 58.7063 295.099 68.1876 297.229C77.3041 299.277 86.8447 297.696 94.8576 292.809C102.871 287.922 108.75 280.098 111.294 270.939V270.939C115.94 252.756 127.162 237.038 142.706 226.943C157.941 216.992 176.255 213.164 194.097 216.203L194.043 216.117C202.768 217.811 211.8 216.197 219.441 211.578C219.921 211.303 220.397 211.016 220.867 210.718L221.176 210.509C228.716 205.611 234.229 198.061 236.67 189.292V189.292C241.316 171.11 252.538 155.391 268.082 145.296C283.317 135.346 301.631 131.518 319.473 134.557L319.419 134.47C328.768 136.272 338.439 134.29 346.382 128.946C354.324 123.601 359.915 115.314 361.968 105.841C363.005 101.054 363.106 96.1059 362.267 91.2797C361.428 86.4534 359.664 81.8432 357.078 77.7123C354.491 73.5814 351.131 70.0107 347.19 67.204C343.25 64.3974 338.805 62.4098 334.111 61.3547C324.809 59.2674 315.075 60.9592 306.975 66.0709C298.875 71.1826 293.047 79.3116 290.728 88.7318V88.7318Z" stroke="#1DF4F4" stroke-width="2" stroke-miterlimit="10"/>
<path d="M302.659 54.2903L333.14 61.1369" stroke="#0437FF" stroke-width="2" stroke-miterlimit="10"/>
<path d="M70.2147 297.624L38.3389 290.464" stroke="#0437FF" stroke-width="2" stroke-miterlimit="10"/>
</svg>
