<svg width="325" height="38" viewBox="0 0 325 38" fill="none" xmlns="http://www.w3.org/2000/svg">
<g clip-path="url(#clip0)">
<path d="M29.2347 8.30438C28.5624 7.62468 28.1044 6.7584 27.9186 5.81514C27.7327 4.87187 27.8275 3.89401 28.1909 3.00527C28.5542 2.11654 29.1698 1.35687 29.9598 0.82238C30.7498 0.287888 31.6786 0.00259399 32.6288 0.00259399C33.579 0.00259399 34.5078 0.287888 35.2978 0.82238C36.0878 1.35687 36.7034 2.11654 37.0667 3.00527C37.4301 3.89401 37.5248 4.87187 37.339 5.81514C37.1532 6.7584 36.6952 7.62468 36.0229 8.30438C35.1223 9.21484 33.9016 9.72624 32.6288 9.72624C31.356 9.72624 30.1352 9.21484 29.2347 8.30438ZM146.782 30.753V3.20271H139.114V18.9583L146.782 30.753ZM1.41278 29.7158C0.740472 30.3955 0.282441 31.2618 0.0966337 32.2051C-0.089174 33.1483 0.00559129 34.1262 0.36894 35.0149C0.732289 35.9037 1.34789 36.6634 2.13786 37.1978C2.92783 37.7323 3.85667 38.0176 4.80686 38.0176C5.75705 38.0176 6.68589 37.7323 7.47586 37.1978C8.26583 36.6634 8.88144 35.9037 9.24479 35.0149C9.60814 34.1262 9.7029 33.1483 9.51709 32.2051C9.33129 31.2618 8.87326 30.3955 8.20095 29.7158C7.75618 29.2628 7.22757 28.9029 6.64533 28.6567C6.06309 28.4105 5.43864 28.2828 4.80764 28.281C4.17665 28.2792 3.55149 28.4033 2.96788 28.6461C2.38428 28.889 1.85367 29.2459 1.40637 29.6964L1.41278 29.7158ZM18.8763 28.0952C16.4556 27.9672 14.1708 26.9233 12.4747 25.1703C10.7785 23.4174 9.79488 21.0834 9.71869 18.6309C9.65112 17.6928 9.3181 16.7942 8.75942 16.0425C8.20074 15.2909 7.44006 14.718 6.56828 14.3924C5.69651 14.0667 4.75054 14.0021 3.84344 14.2062C2.93635 14.4103 2.10651 14.8745 1.45312 15.5434C0.799739 16.2122 0.350454 17.0574 0.158972 17.9778C-0.0325106 18.8982 0.0419103 19.855 0.373342 20.7338C0.704774 21.6125 1.27919 22.3761 2.02793 22.9332C2.77667 23.4902 3.66806 23.8173 4.59553 23.8752C7.00562 23.971 9.29353 24.9742 11.0111 26.6883C12.7287 28.4024 13.7523 30.7038 13.8813 33.1418C13.9148 34.095 14.2228 35.0175 14.7674 35.7959C15.3119 36.5743 16.0693 37.1747 16.9464 37.5232C17.8235 37.8717 18.7821 37.9533 19.7043 37.7577C20.6265 37.5622 21.4723 37.0982 22.1375 36.4226C22.8027 35.7471 23.2584 34.8896 23.4486 33.9554C23.6388 33.0212 23.5552 32.0511 23.2081 31.1644C22.8609 30.2777 22.2654 29.513 21.4947 28.9642C20.724 28.4155 19.8117 28.1067 18.8699 28.0758L18.8763 28.0952ZM196.97 29.3917C196.768 29.4112 196.56 29.4241 196.33 29.4241C195.35 29.4697 194.39 29.1372 193.643 28.4939C192.956 27.8737 192.551 26.9738 192.43 25.794H184.271C184.282 27.4862 184.748 29.1433 185.619 30.5877C186.246 31.4051 187.049 32.067 187.967 32.523C188.884 32.9791 189.893 33.2173 190.915 33.2196H191.059C192.298 33.1913 193.505 32.817 194.547 32.1381C195.589 31.4592 196.425 30.502 196.964 29.3723L196.97 29.3917ZM32.7729 28.0952C30.3522 27.9672 28.0673 26.9233 26.3712 25.1703C24.6751 23.4174 23.6914 21.0834 23.6152 18.6309C23.5331 17.4997 23.0644 16.4327 22.2896 15.6133C22.2288 15.5453 22.1647 15.4804 22.0975 15.4156C21.2354 14.5724 20.0938 14.0847 18.8955 14.0478C16.4748 13.9183 14.1904 12.8734 12.4944 11.1201C10.7985 9.36678 9.81476 7.03281 9.7379 4.58023C9.67033 3.64209 9.33731 2.7435 8.77863 1.99186C8.21996 1.24022 7.45927 0.667341 6.58749 0.341698C5.71572 0.0160561 4.76975 -0.0485703 3.86265 0.155543C2.95556 0.359657 2.12572 0.823875 1.47233 1.49271C0.81895 2.16154 0.369665 3.00669 0.178183 3.92713C-0.0132995 4.84756 0.0611263 5.80435 0.392558 6.68311C0.72399 7.56187 1.29841 8.32542 2.04715 8.8825C2.79589 9.43958 3.68727 9.76662 4.61475 9.82451C7.0253 9.9189 9.31403 10.9216 11.0319 12.636C12.7498 14.3504 13.7729 16.6526 13.9005 19.0911C13.9288 20.2768 14.3843 21.4111 15.1812 22.2805C15.2293 22.3356 15.2773 22.3907 15.3317 22.4426L15.367 22.475C16.2004 23.3221 17.313 23.8287 18.4921 23.8979C20.9022 23.9937 23.1901 24.9969 24.9077 26.711C26.6253 28.4251 27.6488 30.7265 27.7778 33.1645C27.8157 34.1165 28.1273 35.0367 28.6744 35.812C29.2215 36.5873 29.9802 37.1842 30.8576 37.5293C31.7349 37.8744 32.6927 37.9528 33.6134 37.7548C34.5341 37.5569 35.3778 37.0912 36.0408 36.4149C36.7038 35.7385 37.1574 34.881 37.3459 33.9475C37.5344 33.014 37.4496 32.0451 37.1019 31.1597C36.7543 30.2743 36.1589 29.5108 35.3887 28.963C34.6186 28.4152 33.7072 28.1068 32.7665 28.0758L32.7729 28.0952ZM228.167 9.41288H235.15V3.19623H224.139L228.167 9.41288ZM299.836 30.4808V3.19623H292.152V18.6763L299.836 30.4808ZM201.197 5.29978H201.059C199.828 5.3281 198.63 5.71323 197.609 6.4095C196.587 7.10577 195.784 8.08397 195.295 9.22813C195.388 9.22813 195.484 9.22813 195.583 9.22813C196.532 9.19189 197.462 9.50254 198.203 10.1033C198.547 10.4059 198.825 10.7784 199.018 11.1966C199.211 11.6148 199.315 12.0694 199.323 12.5309H207.616C207.569 10.871 207.102 9.25095 206.262 7.82468C205.663 7.04157 204.895 6.40711 204.018 5.96957C203.14 5.53204 202.175 5.30296 201.197 5.29978ZM313.387 24.8767L305.722 13.0852V35.0541H325.001V28.8375H313.387V24.8767ZM203.348 18.3943C201.741 17.6242 200.087 16.9606 198.395 16.4074C196.363 15.7397 194.868 15.1196 193.912 14.547C193.476 14.3194 193.111 13.9738 192.858 13.5486C192.604 13.1233 192.473 12.6353 192.478 12.1387C192.478 11.9772 192.489 11.8159 192.51 11.6558C192.549 9.72282 193.218 7.85703 194.41 6.34714C195.603 4.83724 197.255 3.76741 199.109 3.30319C198.031 3.10838 196.938 3.01292 195.843 3.01796C192.427 3.01796 189.662 3.85743 187.547 5.53638C185.431 7.21533 184.369 9.53172 184.361 12.4855C184.361 14.4843 184.824 16.1049 185.75 17.3474C186.619 18.5393 187.756 19.5038 189.067 20.1607C190.676 20.9199 192.338 21.5558 194.04 22.0633C195.143 22.3807 196.228 22.7594 197.29 23.1978C198.001 23.4998 198.652 23.9303 199.211 24.4683C199.469 24.7191 199.672 25.0217 199.807 25.3567C199.942 25.6916 200.006 26.0514 199.996 26.413C200 26.7938 199.934 27.172 199.8 27.528C199.567 29.3822 198.775 31.1186 197.533 32.5011C196.29 33.8836 194.657 34.8452 192.855 35.2551C194.069 35.5061 195.305 35.63 196.544 35.6246C198.903 35.6246 200.95 35.1859 202.685 34.3086C204.31 33.5299 205.685 32.3031 206.653 30.7692C207.565 29.2863 208.039 27.5701 208.02 25.8231C208.02 23.9173 207.557 22.3594 206.63 21.1493C205.759 19.9867 204.637 19.0419 203.348 18.3878V18.3943ZM32.7665 14.0122C30.3457 13.8826 28.0613 12.8378 26.3654 11.0844C24.6695 9.33113 23.6857 6.99715 23.6088 4.54457C23.5413 3.60644 23.2082 2.70784 22.6496 1.9562C22.0909 1.20457 21.3302 0.631687 20.4584 0.306045C19.5867 -0.0195975 18.6407 -0.0842238 17.7336 0.11989C16.8265 0.324004 15.9967 0.788222 15.3433 1.45705C14.6899 2.12589 14.2406 2.97104 14.0491 3.89147C13.8576 4.81191 13.9321 5.76869 14.2635 6.64745C14.5949 7.52621 15.1693 8.28977 15.9181 8.84685C16.6668 9.40393 17.5582 9.73096 18.4857 9.78886C20.8962 9.88325 23.185 10.886 24.9029 12.6003C26.6208 14.3147 27.6438 16.617 27.7714 19.0555C27.7987 20.011 28.1018 20.9376 28.6434 21.7207C29.1849 22.5039 29.9412 23.1093 30.8188 23.4623C31.6964 23.8154 32.657 23.9005 33.5818 23.7072C34.5067 23.514 35.3554 23.0508 36.0232 22.3748C36.691 21.6989 37.1486 20.8397 37.3395 19.9035C37.5304 18.9673 37.4463 17.995 37.0976 17.1067C36.7488 16.2183 36.1507 15.4527 35.377 14.9046C34.6034 14.3564 33.688 14.0495 32.7441 14.0219L32.7665 14.0122ZM221.443 3.19623H210.806V9.41288H219.131V35.0541H226.815V11.4548L221.443 3.19623ZM305.722 3.19623V8.95262L314.114 21.8462H323.669V15.8564H313.4V9.41288H325.001V3.19623H305.722ZM292.168 22.8185V22.9385L279.36 3.19623H271.675V35.0541H279.36V15.4026L292.168 35.0541H299.852V34.6101L292.168 22.8185ZM265.937 10.6381C267.375 13.1935 268.11 16.0922 268.066 19.0328C268.111 21.9866 267.367 24.8977 265.915 27.46C264.532 29.9058 262.516 31.9231 260.084 33.2941C257.59 34.664 254.797 35.3815 251.959 35.3815C249.121 35.3815 246.328 34.664 243.834 33.2941C241.39 31.924 239.359 29.9075 237.958 27.46C236.493 24.9021 235.741 21.9893 235.784 19.0328C235.742 16.0865 236.493 13.1842 237.958 10.6381C239.364 8.20174 241.394 6.19501 243.834 4.8298C246.332 3.45991 249.129 2.74248 251.97 2.74248C254.812 2.74248 257.608 3.45991 260.106 4.8298C262.54 6.1877 264.557 8.19712 265.937 10.6381ZM260.266 19.0328C260.266 16.2237 259.512 13.9776 258.003 12.2943C256.493 10.611 254.483 9.77157 251.97 9.77589C249.432 9.77589 247.404 10.6078 245.886 12.2716C244.369 13.9354 243.614 16.1892 243.623 19.0328C243.623 21.8419 244.377 24.0891 245.886 25.7745C247.396 27.46 249.424 28.2994 251.97 28.2929C254.48 28.2929 256.491 27.4459 258.003 25.7518C259.514 24.0578 260.269 21.8181 260.266 19.0328ZM95.2177 2.87859L83.8315 34.7365H91.8556L94.1546 27.2039H102.681L100.008 20.0732H96.9532L99.614 11.4548L101.647 18.054L107.907 34.7365H115.489L104.097 2.87859H95.2177ZM126.187 3.20271H118.624V35.0606H126.293V15.4026L139.101 35.0541H146.769V34.8823L126.187 3.20271ZM172.83 5.19282C170.35 3.86176 167.451 3.19623 164.134 3.19623H152.341V12.048L160.006 23.8395V9.82127H163.641C166.539 9.82127 168.796 10.6381 170.41 12.2716C172.023 13.9052 172.83 16.1892 172.83 19.1236C172.83 22.0601 172.023 24.3289 170.41 25.9301C168.796 27.5313 166.539 28.3329 163.641 28.3351H160.006V27.9623L152.341 16.1708V35.0509H164.134C167.419 35.0509 170.31 34.3853 172.808 33.0543C175.235 31.7883 177.245 29.8328 178.591 27.4275C179.982 24.8887 180.686 22.0231 180.633 19.1203C180.633 15.9763 179.953 13.2008 178.591 10.7936C177.244 8.4033 175.244 6.45818 172.83 5.19282ZM75.3591 5.29978H75.2214C73.9902 5.3281 72.7928 5.71323 71.7713 6.4095C70.7497 7.10577 69.9468 8.08397 69.4579 9.22813C69.5507 9.22813 69.6468 9.22813 69.746 9.22813C70.6946 9.19189 71.6244 9.50254 72.3652 10.1033C72.7095 10.4059 72.9872 10.7784 73.1803 11.1966C73.3733 11.6148 73.4775 12.0694 73.4859 12.5309H81.779C81.7311 10.871 81.2649 9.25095 80.4246 7.82468C79.8256 7.04157 79.0579 6.40711 78.1801 5.96957C77.3023 5.53204 76.3375 5.30296 75.3591 5.29978ZM71.1261 29.3723C70.9244 29.3917 70.7162 29.4047 70.4857 29.4047C69.5061 29.4502 68.546 29.1178 67.7992 28.4745C67.1119 27.8543 66.7074 26.9543 66.5857 25.7745H58.4335C58.4464 27.4625 58.9099 29.1155 59.7751 30.5586C60.3652 31.3328 61.1136 31.9689 61.969 32.4233C62.8245 32.8778 63.7668 33.1398 64.7315 33.1915C65.6963 33.2432 66.6607 33.0834 67.5587 32.7229C68.4568 32.3625 69.2673 31.8099 69.9349 31.1031C70.4197 30.5934 70.8217 30.0092 71.1261 29.3723ZM80.8056 21.1461C79.9319 19.9795 78.8045 19.0324 77.5108 18.3781C75.9035 17.6135 74.2488 16.9553 72.5574 16.4074C70.523 15.7397 69.0288 15.1196 68.0746 14.547C67.6386 14.3194 67.2736 13.9738 67.0203 13.5486C66.767 13.1233 66.6354 12.6353 66.6401 12.1387C66.6408 11.9772 66.6515 11.8159 66.6721 11.6558C66.712 9.72282 67.3801 7.85703 68.5731 6.34714C69.766 4.83724 71.4173 3.76741 73.2714 3.30319C72.1935 3.10838 71.1003 3.01292 70.0054 3.01796C66.59 3.01796 63.8245 3.85743 61.7091 5.53638C59.5936 7.21533 58.5317 9.53172 58.5231 12.4855C58.5231 14.4843 58.9863 16.1049 59.9128 17.3474C60.7813 18.5393 61.9186 19.5038 63.23 20.1607C64.8383 20.9199 66.5005 21.5558 68.2027 22.0633C69.3058 22.3807 70.3908 22.7594 71.4527 23.1978C72.1639 23.4998 72.8149 23.9303 73.3739 24.4683C73.6314 24.7191 73.8343 25.0217 73.9694 25.3567C74.1045 25.6916 74.1688 26.0514 74.1583 26.413C74.1626 26.7938 74.0963 27.172 73.963 27.528C73.7297 29.3822 72.9379 31.1186 71.6953 32.5011C70.4526 33.8836 68.8195 34.8452 67.0179 35.2551C68.2317 35.5061 69.4678 35.63 70.7066 35.6246C73.0675 35.6246 75.1147 35.1859 76.848 34.3086C78.4728 33.5299 79.8479 32.3031 80.8152 30.7692C81.7276 29.2863 82.202 27.5701 82.1825 25.8231C82.191 23.9216 81.7321 22.3658 80.8056 21.1558V21.1461Z" fill="url(#paint0_linear)"/>
</g>
<defs>
<linearGradient id="paint0_linear" x1="60.662" y1="105.359" x2="122.321" y2="54.2461" gradientUnits="userSpaceOnUse">
<stop stop-color="#00F5FF"/>
<stop offset="0.05" stop-color="#01DBFF"/>
<stop offset="0.15" stop-color="#02B4FF"/>
<stop offset="0.26" stop-color="#0392FE"/>
<stop offset="0.37" stop-color="#0476FE"/>
<stop offset="0.48" stop-color="#0561FE"/>
<stop offset="0.61" stop-color="#0652FE"/>
<stop offset="0.77" stop-color="#0649FE"/>
<stop offset="1" stop-color="#0646FE"/>
</linearGradient>
<clipPath id="clip0">
<rect width="325" height="38" fill="white"/>
</clipPath>
</defs>
</svg>
