<svg width="1921" height="413" viewBox="0 0 1921 413" fill="none" xmlns="http://www.w3.org/2000/svg">
<path d="M-1446 258.114C-1353.54 352.78 -1229.14 407.806 -1098.26 411.941C-967.369 416.075 -839.88 369.005 -741.862 280.356V280.356C-552.265 100.945 -303.212 1.38698 -44.6957 1.66613C209.032 1.39069 453.825 97.2977 642.232 270.793V269.235C732.771 356.604 851.482 407.154 975.999 411.36C983.842 411.36 991.467 411.36 999.31 411.36H1004.54C1129.81 411.471 1250.75 364.614 1344.41 279.688C1534.01 100.277 1783.06 0.721795 2041.57 1.00094C2295.25 0.653192 2540 96.5708 2728.28 270.125V268.567C2825.42 362.234 2954.5 413.545 3088.1 411.593C3221.7 409.641 3349.28 354.581 3443.75 258.114" stroke="#1DF4F4" stroke-miterlimit="10"/>
</svg>
