<svg width="105" height="105" viewBox="0 0 105 105" fill="none" xmlns="http://www.w3.org/2000/svg">
<g clip-path="url(#clip0)">
<path d="M52.5002 63C52.8111 63 53.1093 62.8765 53.3292 62.6566C53.5491 62.4367 53.6727 62.1385 53.6727 61.8275V52.5C53.6727 52.1891 53.5491 51.8908 53.3292 51.6709C53.1093 51.451 52.8111 51.3275 52.5002 51.3275C52.1892 51.3275 51.891 51.451 51.6711 51.6709C51.4512 51.8908 51.3276 52.1891 51.3276 52.5V61.8275C51.3276 62.1385 51.4512 62.4367 51.6711 62.6566C51.891 62.8765 52.1892 63 52.5002 63V63Z" fill="#0437FF"/>
<path d="M99.1725 93.3275H91V66.5C91 64.9528 90.3866 63.4688 89.2942 62.3731C88.2019 61.2775 86.7197 60.6596 85.1725 60.655H67.025C67.4384 59.5336 67.6574 58.35 67.6725 57.155V53.655H85.1725C86.7181 53.655 88.2003 53.041 89.2932 51.9482C90.386 50.8553 91 49.373 91 47.8275V33.8275C91 32.2819 90.386 30.7997 89.2932 29.7068C88.2003 28.6139 86.7181 28 85.1725 28H80.5C79.5717 28 78.6815 27.6313 78.0251 26.9749C77.3687 26.3185 77 25.4283 77 24.5V11.655H99.1725C100.718 11.655 102.2 11.041 103.293 9.94816C104.386 8.85529 105 7.37303 105 5.82748C105 4.28193 104.386 2.79966 103.293 1.70679C102.2 0.613926 100.718 7.28433e-09 99.1725 7.28433e-09H52.5C50.9545 7.28423e-09 49.4722 0.613926 48.3793 1.70679C47.2864 2.79966 46.6725 4.28193 46.6725 5.82748C46.6725 7.37303 47.2864 8.85529 48.3793 9.94816C49.4722 11.041 50.9545 11.655 52.5 11.655H74.6725V24.5C74.6725 26.0455 75.2864 27.5278 76.3793 28.6206C77.4722 29.7135 78.9545 30.3275 80.5 30.3275H85.1725C86.1008 30.3275 86.991 30.6962 87.6474 31.3526C88.3038 32.009 88.6725 32.8992 88.6725 33.8275V47.8275C88.6725 48.7557 88.3038 49.646 87.6474 50.3024C86.991 50.9587 86.1008 51.3275 85.1725 51.3275H67.4275C67.2058 50.2363 66.6677 49.2345 65.8803 48.4471C65.093 47.6598 64.0912 47.1217 63 46.9V43.155C63 40.3702 61.8938 37.6995 59.9246 35.7304C57.9555 33.7612 55.2848 32.655 52.5 32.655C49.7152 32.655 47.0445 33.7612 45.0754 35.7304C43.1062 37.6995 42 40.3702 42 43.155V46.9C40.9088 47.1217 39.907 47.6598 39.1197 48.4471C38.3323 49.2345 37.7942 50.2363 37.5725 51.3275H24.5C23.5717 51.3275 22.6815 50.9587 22.0251 50.3024C21.3687 49.646 21 48.7557 21 47.8275V11.655H33.8275C35.3746 11.655 36.8587 11.0416 37.9544 9.94923C39.05 8.85686 39.6679 7.37463 39.6725 5.82748C39.6679 4.28032 39.05 2.79809 37.9544 1.70573C36.8587 0.613358 35.3746 -6.9272e-06 33.8275 7.28433e-09H15.1725C14.8646 -3.4296e-05 14.5689 0.121088 14.3495 0.337204C14.1302 0.55332 14.0046 0.847029 14 1.15495C14 1.30893 14.0303 1.46141 14.0892 1.60367C14.1482 1.74592 14.2345 1.8752 14.3434 1.98408C14.4523 2.09295 14.5816 2.17931 14.7238 2.23824C14.8661 2.29716 15.0185 2.32748 15.1725 2.32748H33.8275C34.7557 2.32748 35.646 2.69622 36.3024 3.3526C36.9587 4.00898 37.3275 4.89922 37.3275 5.82748C37.3275 6.75573 36.9587 7.64598 36.3024 8.30235C35.646 8.95873 34.7557 9.32748 33.8275 9.32748H5.82748C4.89922 9.32748 4.00898 8.95873 3.3526 8.30235C2.69622 7.64598 2.32748 6.75573 2.32748 5.82748C2.32748 4.89922 2.69622 4.00898 3.3526 3.3526C4.00898 2.69622 4.89922 2.32748 5.82748 2.32748H10.5C10.811 2.32748 11.1092 2.20396 11.3291 1.98408C11.549 1.76419 11.6725 1.46592 11.6725 1.15495C11.6679 0.847029 11.5424 0.55332 11.323 0.337204C11.1036 0.121088 10.808 -3.4296e-05 10.5 7.28433e-09H5.82748C4.28335 0.00461627 2.80379 0.620052 1.71192 1.71192C0.620052 2.80379 0.00461626 4.28335 0 5.82748C0.00461626 7.37161 0.620052 8.85116 1.71192 9.94303C2.80379 11.0349 4.28335 11.6503 5.82748 11.655H18.6725V47.8275C18.6725 49.373 19.2864 50.8553 20.3793 51.9482C21.4722 53.041 22.9545 53.655 24.5 53.655H37.3275V57.155C37.3426 58.35 37.5616 59.5336 37.975 60.655H19.8275C18.2803 60.6596 16.7981 61.2775 15.7058 62.3731C14.6134 63.4688 14 64.9528 14 66.5C14.0046 68.0441 14.6201 69.5237 15.7119 70.6156C16.8038 71.7074 18.2833 72.3229 19.8275 72.3275H29.1725C30.1008 72.3275 30.991 72.6962 31.6474 73.3526C32.3038 74.009 32.6725 74.8992 32.6725 75.8275V93.3275H5.82748C4.28335 93.3321 2.80379 93.9475 1.71192 95.0394C0.620052 96.1313 0.00461626 97.6108 0 99.155C-6.93442e-06 100.702 0.613412 102.186 1.70578 103.282C2.79815 104.377 4.28032 104.995 5.82748 105H61.8275C63.3762 104.995 64.8603 104.378 65.9554 103.283C67.0506 102.188 67.6679 100.704 67.6725 99.155C67.6679 97.6078 67.05 96.1256 65.9544 95.0333C64.8587 93.9409 63.3746 93.3275 61.8275 93.3275H35V75.8275C35 74.2819 34.386 72.7997 33.2932 71.7068C32.2003 70.6139 30.7181 70 29.1725 70H19.8275C18.8992 70 18.009 69.6313 17.3526 68.9749C16.6962 68.3185 16.3275 67.4283 16.3275 66.5C16.3275 65.5717 16.6962 64.6815 17.3526 64.0251C18.009 63.3687 18.8992 63 19.8275 63H39.0775C40.04 64.4364 41.3423 65.6128 42.8687 66.4249C44.3951 67.2369 46.0985 67.6594 47.8275 67.655C47.9806 67.6573 48.1327 67.6291 48.2749 67.5721C48.417 67.5151 48.5464 67.4304 48.6555 67.3229C48.7646 67.2154 48.8513 67.0873 48.9104 66.946C48.9696 66.8048 49 66.6532 49 66.5C49 66.189 48.8765 65.8908 48.6566 65.6709C48.4367 65.451 48.1384 65.3275 47.8275 65.3275C45.663 65.3228 43.5888 64.4598 42.06 62.9276C40.5311 61.3955 39.6725 59.3194 39.6725 57.155V52.5C39.6725 51.5717 40.0413 50.6815 40.6976 50.0251C41.354 49.3687 42.2443 49 43.1725 49H61.8275C62.7557 49 63.646 49.3687 64.3024 50.0251C64.9587 50.6815 65.3275 51.5717 65.3275 52.5V57.155C65.3275 59.3194 64.4689 61.3955 62.94 62.9276C61.4112 64.4598 59.337 65.3228 57.1725 65.3275H52.5C52.189 65.3275 51.8908 65.451 51.6709 65.6709C51.451 65.8908 51.3275 66.189 51.3275 66.5C51.3275 66.6532 51.3579 66.8048 51.417 66.946C51.4762 67.0873 51.5628 67.2154 51.6719 67.3229C51.7811 67.4304 51.9105 67.5151 52.0526 67.5721C52.1948 67.6291 52.3469 67.6573 52.5 67.655H57.1725C58.9015 67.6594 60.6049 67.2369 62.1313 66.4249C63.6577 65.6128 64.96 64.4364 65.9225 63H85.1725C86.1008 63 86.991 63.3687 87.6474 64.0251C88.3038 64.6815 88.6725 65.5717 88.6725 66.5V93.3275H80.5C78.9559 93.3321 77.4763 93.9475 76.3844 95.0394C75.2926 96.1313 74.6771 97.6108 74.6725 99.155C74.6725 100.702 75.2859 102.186 76.3783 103.282C77.4706 104.377 78.9528 104.995 80.5 105H85.1725C85.4804 104.995 85.7742 104.87 85.9903 104.65C86.2064 104.431 86.3275 104.135 86.3275 103.827C86.3275 103.52 86.2064 103.224 85.9903 103.004C85.7742 102.785 85.4804 102.66 85.1725 102.655H80.5C79.5717 102.655 78.6815 102.286 78.0251 101.63C77.3687 100.973 77 100.083 77 99.155C77 98.2267 77.3687 97.3365 78.0251 96.6801C78.6815 96.0237 79.5717 95.655 80.5 95.655H99.1725C100.101 95.655 100.991 96.0237 101.647 96.6801C102.304 97.3365 102.673 98.2267 102.673 99.155C102.673 100.083 102.304 100.973 101.647 101.63C100.991 102.286 100.101 102.655 99.1725 102.655H89.8275C89.5196 102.66 89.2258 102.785 89.0097 103.004C88.7936 103.224 88.6725 103.52 88.6725 103.827C88.6725 104.135 88.7936 104.431 89.0097 104.65C89.2258 104.87 89.5196 104.995 89.8275 105H99.1725C100.72 104.995 102.202 104.377 103.294 103.282C104.387 102.186 105 100.702 105 99.155C104.995 97.6108 104.38 96.1313 103.288 95.0394C102.196 93.9475 100.717 93.3321 99.1725 93.3275ZM49 5.82748C49 4.89922 49.3687 4.00898 50.0251 3.3526C50.6815 2.69622 51.5717 2.32748 52.5 2.32748H99.1725C100.101 2.32748 100.991 2.69622 101.647 3.3526C102.304 4.00898 102.673 4.89922 102.673 5.82748C102.673 6.75573 102.304 7.64598 101.647 8.30235C100.991 8.95873 100.101 9.32748 99.1725 9.32748H52.5C51.5717 9.32748 50.6815 8.95873 50.0251 8.30235C49.3687 7.64598 49 6.75573 49 5.82748ZM65.3275 99.155C65.3275 100.083 64.9587 100.973 64.3024 101.63C63.646 102.286 62.7557 102.655 61.8275 102.655H5.82748C4.89922 102.655 4.00898 102.286 3.3526 101.63C2.69622 100.973 2.32748 100.083 2.32748 99.155C2.32748 98.2267 2.69622 97.3365 3.3526 96.6801C4.00898 96.0237 4.89922 95.655 5.82748 95.655H61.8275C62.7557 95.655 63.646 96.0237 64.3024 96.6801C64.9587 97.3365 65.3275 98.2267 65.3275 99.155ZM52.5 35C54.6645 35 56.7405 35.8586 58.2726 37.3875C59.8048 38.9163 60.6679 40.9905 60.6725 43.155V46.655H44.3275V43.155C44.3321 40.9905 45.1952 38.9163 46.7274 37.3875C48.2595 35.8586 50.3355 35 52.5 35V35Z" fill="#0437FF"/>
</g>
<defs>
<clipPath id="clip0">
<rect width="105" height="105" fill="white"/>
</clipPath>
</defs>
</svg>
