<svg xmlns="http://www.w3.org/2000/svg" viewBox="0 0 64 64" width="80" height="80">
    <defs>
        <style>.cls-1{fill:#0437ff;}.cls-2{fill:#fff;stroke:#0437ff;stroke-miterlimit:10;stroke-width:1.3px;}</style>
    </defs>
    <g id="_27_Profit" data-name="27_Profit">
        <circle class="cls-1" cx="20.24" cy="41.57" r="1.46"/>
        <path class="cls-1" d="M10.73,49a1.46,1.46,0,1,0,2.07,0A1.47,1.47,0,0,0,10.73,49Z"/>
        <path class="cls-1"
              d="M16.05,48.55h0a2.95,2.95,0,0,1-2.79-2.85,1.47,1.47,0,1,0-1.56,1.58h0a2.95,2.95,0,0,1,2.83,2.79h0a1.48,1.48,0,0,0,3,0A1.49,1.49,0,0,0,16.05,48.55Z"/>
        <path class="cls-1"
              d="M20.28,48.55h0a2.95,2.95,0,0,1-2.79-2.85,1.46,1.46,0,0,0-.4-.9L17,44.74h0a1.46,1.46,0,0,0-1-.41h0a3,3,0,0,1-1.93-.86,2.91,2.91,0,0,1-.86-2,1.47,1.47,0,1,0-1.56,1.58h0a2.95,2.95,0,0,1,2.83,2.79h0a1.46,1.46,0,0,0,.4,1l0,0v0a1.49,1.49,0,0,0,.95.42h0a2.95,2.95,0,0,1,2.83,2.79h0a1.48,1.48,0,1,0,1.52-1.52Z"/>
        <path class="cls-1"
              d="M20.28,44.32h0a3,3,0,0,1-1.93-.86,2.91,2.91,0,0,1-.86-2,1.47,1.47,0,1,0-1.56,1.58h0a2.95,2.95,0,0,1,2.83,2.79h0a1.48,1.48,0,0,0,2.95-.05A1.47,1.47,0,0,0,20.28,44.32Z"/>
    </g>
    <g id="_19_Revenue" data-name="19_Revenue">
        <line class="cls-2" x1="22.03" y1="33.43" x2="55.13" y2="8.82"/>
        <path class="cls-1"
              d="M61.33,33.09a.67.67,0,0,0,.67-.66V27.09a.67.67,0,0,0-.67-.66H58.21A6,6,0,0,0,54,28.18l-2.21,2.21a4.7,4.7,0,0,1-3.3,1.37h-.27a6,6,0,0,0-5,2.67L41,37.68a4.67,4.67,0,0,1-3.88,2.08H34.67a.67.67,0,0,0-.67.67V53.09H27.87A13.81,13.81,0,0,0,30,45.76a14,14,0,0,0-14-14,13.81,13.81,0,0,0-7.33,2.13V5.76a.67.67,0,0,0-1.34,0V34.85A13.94,13.94,0,0,0,2,45.76a13.78,13.78,0,0,0,.28,2.8.67.67,0,1,0,1.31-.27,12.56,12.56,0,0,1-.26-2.53,12.67,12.67,0,1,1,1.06,5.07.67.67,0,0,0-1.23.53,13.94,13.94,0,0,0,23.75,3.07H61.33a.67.67,0,0,0,.67-.67V35.09a.67.67,0,0,0-1.33,0v18h-4V28a4.71,4.71,0,0,1,1.54-.28h2.46v4.67A.67.67,0,0,0,61.33,33.09Zm-22,20h-4v-12h1.82a5.79,5.79,0,0,0,2.18-.46Zm10.67,0H46V48.43a.67.67,0,1,0-1.33,0v4.66h-4V39.9a5.91,5.91,0,0,0,1.47-1.48l2.16-3.25c.11-.15.25-.28.37-.42v11a.67.67,0,1,0,1.33,0V33.64a4.68,4.68,0,0,1,2.19-.55h.27A5.74,5.74,0,0,0,50,32.86Zm5.33,0h-4V32.32a5.8,5.8,0,0,0,1.37-1l2.21-2.21a4.58,4.58,0,0,1,.42-.35Z"/>
        <circle class="cls-2" cx="27.13" cy="29.13" r="2.82"/>
        <circle class="cls-2" cx="41.13" cy="19.23" r="2.82"/>
        <circle class="cls-2" cx="55.13" cy="8.82" r="2.82"/>
    </g>
</svg>