<svg xmlns="http://www.w3.org/2000/svg" viewBox="0 0 64 64" width="80" height="80">
    <defs>
        <style>.cls-1{fill:#0437ff;}</style>
    </defs>
    <g id="_24_Blockchain" data-name="24_Blockchain">
        <path class="cls-1"
              d="M45.93,32.67h9.54a3.28,3.28,0,0,0,3.2,2.66,3.33,3.33,0,0,0,0-6.66,3.28,3.28,0,0,0-3.2,2.66H45.93c0-.36,0-.71-.09-1.07a13.26,13.26,0,0,0-1-3.86l0,.21a13.54,13.54,0,0,0-1.54-2.76V18.67A4.68,4.68,0,0,1,48,14h5.33a6,6,0,0,0,6-5.46A3.29,3.29,0,0,0,62,5.33a3.34,3.34,0,0,0-6.67,0A3.29,3.29,0,0,0,58,8.52a4.66,4.66,0,0,1-4.62,4.15H48a6,6,0,0,0-6,6v3.56a13.93,13.93,0,0,0-9.33-4.16V8.53a3.28,3.28,0,0,0,2.66-3.2,3.33,3.33,0,1,0-6.66,0,3.28,3.28,0,0,0,2.66,3.2v9.54a13.71,13.71,0,0,0-4.93,1.1.65.65,0,0,0-.34.87.66.66,0,0,0,.87.35,12.64,12.64,0,1,1-2.53,1.47.66.66,0,0,0,.13-.93.67.67,0,0,0-.93-.13A13.61,13.61,0,0,0,22,22.23V18.67a6,6,0,0,0-6-6H10.67A4.66,4.66,0,0,1,6.05,8.52,3.3,3.3,0,0,0,8.67,5.33,3.34,3.34,0,0,0,2,5.33,3.29,3.29,0,0,0,4.72,8.54a6,6,0,0,0,6,5.46H16a4.68,4.68,0,0,1,4.67,4.67V23.8A13.8,13.8,0,0,0,18,31.33H8.53a3.28,3.28,0,0,0-3.2-2.66,3.33,3.33,0,0,0,0,6.66,3.28,3.28,0,0,0,3.2-2.66h9.54a13.81,13.81,0,0,0,2.6,7.48v5.18A4.68,4.68,0,0,1,16,50H10.67a6,6,0,0,0-5.95,5.46A3.29,3.29,0,0,0,2,58.67a3.34,3.34,0,0,0,6.67,0,3.3,3.3,0,0,0-2.62-3.19,4.66,4.66,0,0,1,4.62-4.15H16a6,6,0,0,0,6-6V41.77a13.93,13.93,0,0,0,9.33,4.16v9.54a3.28,3.28,0,0,0-2.66,3.2,3.33,3.33,0,0,0,6.66,0,3.28,3.28,0,0,0-2.66-3.2V45.93A13.93,13.93,0,0,0,42,41.77v3.56a6,6,0,0,0,6,6h5.33A4.66,4.66,0,0,1,58,55.48a3.29,3.29,0,0,0-2.62,3.19,3.34,3.34,0,0,0,6.67,0,3.29,3.29,0,0,0-2.72-3.21,6,6,0,0,0-6-5.46H48a4.68,4.68,0,0,1-4.67-4.67V40.15A13.81,13.81,0,0,0,45.93,32.67ZM58.67,30a2,2,0,1,1-2,2A2,2,0,0,1,58.67,30Zm-2-24.67a2,2,0,1,1,2,2A2,2,0,0,1,56.67,5.33ZM30,5.33a2,2,0,1,1,2,2A2,2,0,0,1,30,5.33Zm-26.67,0a2,2,0,1,1,2,2A2,2,0,0,1,3.33,5.33ZM5.33,34a2,2,0,1,1,2-2A2,2,0,0,1,5.33,34Zm2,24.67a2,2,0,1,1-2-2A2,2,0,0,1,7.33,58.67Zm26.67,0a2,2,0,1,1-2-2A2,2,0,0,1,34,58.67Zm26.67,0a2,2,0,1,1-2-2A2,2,0,0,1,60.67,58.67Z"/>
        <path class="cls-1"
              d="M22.52,31.94a.2.2,0,0,0,0-.08.42.42,0,0,1,.44-.24.41.41,0,0,1,0,.8.41.41,0,0,1-.46-.24.36.36,0,0,0,0-.09Z"/>
        <path class="cls-1" d="M31.77,34.61a1.27,1.27,0,1,1-1.27-1.27A1.27,1.27,0,0,1,31.77,34.61Z"/>
        <path class="cls-1" d="M30.26,32A1.27,1.27,0,1,1,29,30.74,1.26,1.26,0,0,1,30.26,32Z"/>
        <path class="cls-1"
              d="M29.22,29.39a1.28,1.28,0,0,1,1.27-1.27,1.28,1.28,0,0,1,0,2.55A1.28,1.28,0,0,1,29.22,29.39Z"/>
        <path class="cls-1"
              d="M33.51,35.87a1.27,1.27,0,0,1-1.27-1.27,1.27,1.27,0,0,1,2.54,0A1.26,1.26,0,0,1,33.51,35.87Z"/>
        <path class="cls-1" d="M33.74,32A1.27,1.27,0,1,1,35,33.26,1.27,1.27,0,0,1,33.74,32Z"/>
        <path class="cls-1" d="M34.76,29.39a1.27,1.27,0,1,1-1.26-1.27A1.26,1.26,0,0,1,34.76,29.39Z"/>
        <path class="cls-1" d="M32.73,26.85a.74.74,0,1,1-1.48,0,.74.74,0,0,1,1.48,0Z"/>
        <path class="cls-1" d="M31.22,37.15a.74.74,0,1,1,.73.75A.74.74,0,0,1,31.22,37.15Z"/>
        <path class="cls-1" d="M35.73,34.56a.75.75,0,1,1,1.49,0,.76.76,0,0,1-.75.74A.75.75,0,0,1,35.73,34.56Z"/>
        <path class="cls-1" d="M28.28,29.43a.75.75,0,0,1-.74.75.76.76,0,0,1-.75-.75.75.75,0,0,1,1.49,0Z"/>
        <path class="cls-1" d="M27.55,35.33a.75.75,0,0,1-.75-.74.75.75,0,1,1,.75.74Z"/>
        <path class="cls-1" d="M37.2,29.41a.75.75,0,0,1-1.49,0,.76.76,0,0,1,.75-.75A.74.74,0,0,1,37.2,29.41Z"/>
        <path class="cls-1" d="M36,37.78a.64.64,0,1,1-1.27,0,.64.64,0,0,1,.63-.64A.65.65,0,0,1,36,37.78Z"/>
        <path class="cls-1" d="M29.3,37.8a.63.63,0,0,1-.64.63.63.63,0,0,1,0-1.26A.63.63,0,0,1,29.3,37.8Z"/>
        <path class="cls-1"
              d="M25.32,31.39a.61.61,0,0,1,.62.63.62.62,0,0,1-.64.63.63.63,0,0,1-.62-.63A.62.62,0,0,1,25.32,31.39Z"/>
        <path class="cls-1" d="M36,26.2a.63.63,0,0,1-.63.63A.63.63,0,1,1,36,26.2Z"/>
        <path class="cls-1" d="M38.7,31.36a.62.62,0,0,1,.62.63.63.63,0,1,1-.62-.63Z"/>
        <path class="cls-1"
              d="M28,26.21a.62.62,0,0,1,.63-.62.63.63,0,0,1,.63.63.63.63,0,0,1-.63.63A.64.64,0,0,1,28,26.21Z"/>
        <path class="cls-1"
              d="M24.87,36.65a.52.52,0,0,1-.51-.52.54.54,0,0,1,.54-.52.52.52,0,0,1,.5.54A.51.51,0,0,1,24.87,36.65Z"/>
        <path class="cls-1" d="M39.12,27.35a.52.52,0,1,1,0,1,.52.52,0,0,1-.52-.52A.52.52,0,0,1,39.12,27.35Z"/>
        <path class="cls-1" d="M31.46,23.76a.52.52,0,0,1,1,0,.52.52,0,1,1-1,0Z"/>
        <path class="cls-1"
              d="M24.86,28.41a.51.51,0,0,1-.52-.51.52.52,0,0,1,.52-.52.52.52,0,0,1,.52.52A.51.51,0,0,1,24.86,28.41Z"/>
        <path class="cls-1"
              d="M39.14,35.59a.51.51,0,0,1,.52.51.52.52,0,0,1-.52.52.53.53,0,0,1-.52-.52A.51.51,0,0,1,39.14,35.59Z"/>
        <path class="cls-1" d="M32.48,40.24a.52.52,0,1,1-1,0,.52.52,0,1,1,1,0Z"/>
        <path class="cls-1" d="M36.11,24.13a.39.39,0,0,1,.4-.4.42.42,0,0,1,.41.41.41.41,0,1,1-.81,0Z"/>
        <path class="cls-1" d="M27.86,24.15a.41.41,0,1,1-.41-.4A.41.41,0,0,1,27.86,24.15Z"/>
        <path class="cls-1"
              d="M36.15,39.85a.4.4,0,0,1,.4-.41.41.41,0,0,1,.41.4.41.41,0,0,1-.41.41A.4.4,0,0,1,36.15,39.85Z"/>
        <path class="cls-1"
              d="M41.07,32.39a.4.4,0,0,1-.4-.42.38.38,0,0,1,.4-.39.41.41,0,0,1,.41.4A.43.43,0,0,1,41.07,32.39Z"/>
        <path class="cls-1" d="M27.89,39.86a.4.4,0,0,1-.41.4.4.4,0,1,1,0-.8A.4.4,0,0,1,27.89,39.86Z"/>
    </g>
</svg>