<svg xmlns="http://www.w3.org/2000/svg" viewBox="0 0 1100 600" font-family="system-ui, -apple-system, sans-serif">
  <defs>
    <linearGradient id="barGrad" x1="0" y1="0" x2="1" y2="0">
      <stop offset="0%" stop-color="#818cf8"/>
      <stop offset="100%" stop-color="#4f46e5"/>
    </linearGradient>
    <linearGradient id="barPeak" x1="0" y1="0" x2="1" y2="0">
      <stop offset="0%" stop-color="#fbbf24"/>
      <stop offset="100%" stop-color="#f59e0b"/>
    </linearGradient>
    <linearGradient id="headingGrad" x1="0" y1="0" x2="1" y2="0">
      <stop offset="0%" stop-color="#818cf8"/>
      <stop offset="100%" stop-color="#c084fc"/>
    </linearGradient>
    <linearGradient id="greenGrad" x1="0" y1="0" x2="1" y2="0">
      <stop offset="0%" stop-color="#34d399"/>
      <stop offset="100%" stop-color="#059669"/>
    </linearGradient>
    <linearGradient id="orangeGrad" x1="0" y1="0" x2="1" y2="0">
      <stop offset="0%" stop-color="#fb923c"/>
      <stop offset="100%" stop-color="#ea580c"/>
    </linearGradient>
    <linearGradient id="pinkGrad" x1="0" y1="0" x2="1" y2="0">
      <stop offset="0%" stop-color="#f472b6"/>
      <stop offset="100%" stop-color="#db2777"/>
    </linearGradient>
  </defs>

  <!-- Background -->
  <rect width="1100" height="600" rx="16" fill="#1e1e2e"/>

  <!-- Title -->
  <text x="550" y="42" text-anchor="middle" fill="url(#headingGrad)" font-size="22" font-weight="700" letter-spacing="0.5">Cardano Core Ecosystem &#x2014; Development Activity</text>
  <text x="550" y="64" text-anchor="middle" fill="#9ca3af" font-size="13">8 repositories &#xB7; IntersectMBO &#xB7; 2016 &#x2013; Present</text>

  <!-- ===== TOP: Key Stats Panel ===== -->
  <rect x="60" y="84" width="980" height="80" rx="12" fill="#262637"/>

  <!-- Stat: Unique Commits -->
  <text x="170" y="118" text-anchor="middle" fill="#e0e7ff" font-size="34" font-weight="800">56K+</text>
  <text x="170" y="142" text-anchor="middle" fill="#9ca3af" font-size="11">Unique Commits</text>

  <line x1="300" y1="100" x2="300" y2="148" stroke="#374151" stroke-width="1"/>

  <!-- Stat: Repos -->
  <text x="390" y="118" text-anchor="middle" fill="#e0e7ff" font-size="34" font-weight="800">8</text>
  <text x="390" y="142" text-anchor="middle" fill="#9ca3af" font-size="11">Core Repos</text>

  <line x1="480" y1="100" x2="480" y2="148" stroke="#374151" stroke-width="1"/>

  <!-- Stat: Contributors -->
  <text x="570" y="118" text-anchor="middle" fill="#e0e7ff" font-size="34" font-weight="800">300+</text>
  <text x="570" y="142" text-anchor="middle" fill="#9ca3af" font-size="11">Contributors</text>

  <line x1="660" y1="100" x2="660" y2="148" stroke="#374151" stroke-width="1"/>

  <!-- Stat: Stars -->
  <text x="750" y="118" text-anchor="middle" fill="#e0e7ff" font-size="34" font-weight="800">5.7K</text>
  <text x="750" y="142" text-anchor="middle" fill="#9ca3af" font-size="11">GitHub Stars</text>

  <line x1="840" y1="100" x2="840" y2="148" stroke="#374151" stroke-width="1"/>

  <!-- Stat: Language -->
  <text x="940" y="118" text-anchor="middle" fill="#e0e7ff" font-size="34" font-weight="800">100%</text>
  <text x="940" y="142" text-anchor="middle" fill="#9ca3af" font-size="11">Haskell</text>

  <!-- ===== LEFT: Commits Per Repository ===== -->
  <text x="60" y="200" fill="url(#headingGrad)" font-size="14" font-weight="700">Commits per Repository</text>
  <text x="60" y="216" fill="#6b7280" font-size="10">*cardano-node/api/cli share git history (split 2023)</text>

  <!-- Horizontal bar chart: max=11900 (ledger), bar area x=220..520, width=300 -->
  <!-- cardano-ledger: 11,900 => w=300 -->
  <text x="210" y="244" text-anchor="end" fill="#d1d5db" font-size="11">cardano-ledger</text>
  <rect x="220" y="233" width="300" height="16" rx="3" fill="url(#barPeak)" opacity="0.95"/>
  <text x="528" y="245" fill="#fbbf24" font-size="11" font-weight="600">11,900</text>

  <!-- plutus: 11,841 => w=299 -->
  <text x="210" y="270" text-anchor="end" fill="#d1d5db" font-size="11">plutus</text>
  <rect x="220" y="259" width="299" height="16" rx="3" fill="url(#barGrad)" opacity="0.9"/>
  <text x="527" y="271" fill="#a5b4fc" font-size="11" font-weight="600">11,841</text>

  <!-- ouroboros-consensus: 10,614 => w=268 -->
  <text x="210" y="296" text-anchor="end" fill="#d1d5db" font-size="11">ouroboros-consensus</text>
  <rect x="220" y="285" width="268" height="16" rx="3" fill="url(#barGrad)" opacity="0.85"/>
  <text x="496" y="297" fill="#a5b4fc" font-size="11" font-weight="600">10,614</text>

  <!-- cardano-node*: 10,378 => w=262 -->
  <text x="210" y="322" text-anchor="end" fill="#d1d5db" font-size="11">cardano-node*</text>
  <rect x="220" y="311" width="262" height="16" rx="3" fill="url(#barGrad)" opacity="0.8"/>
  <text x="490" y="323" fill="#a5b4fc" font-size="11" font-weight="600">10,378</text>

  <!-- ouroboros-network: 10,164 => w=256 -->
  <text x="210" y="348" text-anchor="end" fill="#d1d5db" font-size="11">ouroboros-network</text>
  <rect x="220" y="337" width="256" height="16" rx="3" fill="url(#barGrad)" opacity="0.75"/>
  <text x="484" y="349" fill="#a5b4fc" font-size="11" font-weight="600">10,164</text>

  <!-- cardano-base: 1,147 => w=29 -->
  <text x="210" y="374" text-anchor="end" fill="#d1d5db" font-size="11">cardano-base</text>
  <rect x="220" y="363" width="29" height="16" rx="3" fill="url(#barGrad)" opacity="0.7"/>
  <text x="257" y="375" fill="#a5b4fc" font-size="11" font-weight="600">1,147</text>

  <!-- ===== RIGHT: Top Cross-Ecosystem Contributors ===== -->
  <text x="600" y="200" fill="url(#headingGrad)" font-size="14" font-weight="700">Top Contributors (cross-repo)</text>

  <!-- Contributor bars: max=lehins 6839, bar area width=300 -->
  <!-- lehins: 6839 => w=300 -->
  <text x="600" y="238" fill="#d1d5db" font-size="11">lehins</text>
  <text x="600" y="250" fill="#6b7280" font-size="9">ledger, base</text>
  <rect x="720" y="233" width="300" height="16" rx="3" fill="#4f46e5" opacity="0.15"/>
  <rect x="720" y="233" width="300" height="16" rx="3" fill="url(#barPeak)" opacity="0.9"/>
  <text x="1028" y="245" fill="#fbbf24" font-size="10" font-weight="600">6,839</text>

  <!-- coot: 5211 => w=229 -->
  <text x="600" y="276" fill="#d1d5db" font-size="11">coot</text>
  <text x="600" y="288" fill="#6b7280" font-size="9">network, consensus</text>
  <rect x="720" y="271" width="300" height="16" rx="3" fill="#4f46e5" opacity="0.15"/>
  <rect x="720" y="271" width="229" height="16" rx="3" fill="url(#barGrad)" opacity="0.9"/>
  <text x="957" y="283" fill="#e0e7ff" font-size="10" font-weight="600">5,211</text>

  <!-- dcoutts: 4592 => w=201 -->
  <text x="600" y="314" fill="#d1d5db" font-size="11">dcoutts</text>
  <text x="600" y="326" fill="#6b7280" font-size="9">node, consensus, network</text>
  <rect x="720" y="309" width="300" height="16" rx="3" fill="#4f46e5" opacity="0.15"/>
  <rect x="720" y="309" width="201" height="16" rx="3" fill="url(#barGrad)" opacity="0.85"/>
  <text x="929" y="321" fill="#e0e7ff" font-size="10" font-weight="600">4,592</text>

  <!-- mrBliss: 2983 => w=131 -->
  <text x="600" y="352" fill="#d1d5db" font-size="11">mrBliss</text>
  <text x="600" y="364" fill="#6b7280" font-size="9">consensus, network</text>
  <rect x="720" y="347" width="300" height="16" rx="3" fill="#4f46e5" opacity="0.15"/>
  <rect x="720" y="347" width="131" height="16" rx="3" fill="url(#barGrad)" opacity="0.8"/>
  <text x="859" y="359" fill="#e0e7ff" font-size="10" font-weight="600">2,983</text>

  <!-- michaelpj: 2512 => w=110 -->
  <text x="600" y="390" fill="#d1d5db" font-size="11">michaelpj</text>
  <text x="600" y="402" fill="#6b7280" font-size="9">plutus</text>
  <rect x="720" y="385" width="300" height="16" rx="3" fill="#4f46e5" opacity="0.15"/>
  <rect x="720" y="385" width="110" height="16" rx="3" fill="url(#barGrad)" opacity="0.75"/>
  <text x="838" y="397" fill="#e0e7ff" font-size="10" font-weight="600">2,512</text>

  <!-- nc6: 2423 => w=106 -->
  <text x="600" y="428" fill="#d1d5db" font-size="11">nc6</text>
  <text x="600" y="440" fill="#6b7280" font-size="9">ledger, network</text>
  <rect x="720" y="423" width="300" height="16" rx="3" fill="#4f46e5" opacity="0.15"/>
  <rect x="720" y="423" width="106" height="16" rx="3" fill="url(#barGrad)" opacity="0.7"/>
  <text x="834" y="435" fill="#e0e7ff" font-size="10" font-weight="600">2,423</text>

  <!-- teodanciu: 2139 => w=94 -->
  <text x="600" y="466" fill="#d1d5db" font-size="11">teodanciu</text>
  <text x="600" y="478" fill="#6b7280" font-size="9">ledger</text>
  <rect x="720" y="461" width="300" height="16" rx="3" fill="#4f46e5" opacity="0.15"/>
  <rect x="720" y="461" width="94" height="16" rx="3" fill="url(#barGrad)" opacity="0.65"/>
  <text x="822" y="473" fill="#e0e7ff" font-size="10" font-weight="600">2,139</text>

  <!-- Bottom note -->
  <text x="600" y="500" fill="#6b7280" font-size="10" font-style="italic">Commits deduplicated where repos share git history</text>

  <!-- ===== Bottom: Era timeline ===== -->
  <rect x="60" y="525" width="980" height="46" rx="8" fill="#262637"/>
  <text x="80" y="545" fill="#9ca3af" font-size="10" font-weight="600" letter-spacing="1">ERAS SHIPPED</text>

  <!-- Era badges -->
  <rect x="200" y="531" width="62" height="24" rx="12" fill="#374151"/>
  <text x="231" y="547" text-anchor="middle" fill="#d1d5db" font-size="10">Byron</text>

  <rect x="272" y="531" width="68" height="24" rx="12" fill="#374151"/>
  <text x="306" y="547" text-anchor="middle" fill="#d1d5db" font-size="10">Shelley</text>

  <rect x="350" y="531" width="68" height="24" rx="12" fill="#374151"/>
  <text x="384" y="547" text-anchor="middle" fill="#d1d5db" font-size="10">Allegra</text>

  <rect x="428" y="531" width="56" height="24" rx="12" fill="#374151"/>
  <text x="456" y="547" text-anchor="middle" fill="#d1d5db" font-size="10">Mary</text>

  <rect x="494" y="531" width="66" height="24" rx="12" fill="#374151"/>
  <text x="527" y="547" text-anchor="middle" fill="#d1d5db" font-size="10">Alonzo</text>

  <rect x="570" y="531" width="74" height="24" rx="12" fill="#374151"/>
  <text x="607" y="547" text-anchor="middle" fill="#d1d5db" font-size="10">Babbage</text>

  <rect x="654" y="531" width="70" height="24" rx="12" fill="#6366f1"/>
  <text x="689" y="547" text-anchor="middle" fill="#fff" font-size="10" font-weight="600">Conway</text>

  <rect x="734" y="531" width="70" height="24" rx="12" fill="none" stroke="#6b7280" stroke-width="1" stroke-dasharray="3,2"/>
  <text x="769" y="547" text-anchor="middle" fill="#6b7280" font-size="10">Dijkstra</text>

  <text x="830" y="547" fill="#6b7280" font-size="10">&#x2190; 8 hard forks, zero downtime</text>

  <!-- ===== LEFT Bottom: Repo age indicators ===== -->
  <text x="60" y="410" fill="url(#headingGrad)" font-size="14" font-weight="700">Repository Timeline</text>

  <!-- Timeline line -->
  <line x1="70" y1="430" x2="530" y2="430" stroke="#374151" stroke-width="1"/>

  <!-- Year markers -->
  <text x="70" y="448" fill="#6b7280" font-size="9">2016</text>
  <text x="127" y="448" fill="#6b7280" font-size="9">2017</text>
  <text x="184" y="448" fill="#6b7280" font-size="9">2018</text>
  <text x="241" y="448" fill="#6b7280" font-size="9">2019</text>
  <text x="298" y="448" fill="#6b7280" font-size="9">2020</text>
  <text x="355" y="448" fill="#6b7280" font-size="9">2021</text>
  <text x="412" y="448" fill="#6b7280" font-size="9">2022</text>
  <text x="469" y="448" fill="#6b7280" font-size="9">2023</text>
  <text x="520" y="448" fill="#6b7280" font-size="9">now</text>

  <!-- Repo dots on timeline -->
  <!-- plutus: Nov 2016 -->
  <circle cx="80" cy="430" r="5" fill="#f472b6"/>
  <text x="80" y="468" text-anchor="middle" fill="#f472b6" font-size="8">plutus</text>

  <!-- ledger: Sep 2018 -->
  <circle cx="190" cy="430" r="5" fill="#fbbf24"/>
  <text x="190" y="468" text-anchor="middle" fill="#fbbf24" font-size="8">ledger</text>

  <!-- network: Sep 2018 -->
  <circle cx="186" cy="420" r="4" fill="#34d399"/>
  <text x="186" y="480" text-anchor="middle" fill="#34d399" font-size="8">network</text>

  <!-- base: Mar 2019 -->
  <circle cx="230" cy="430" r="4" fill="#9ca3af"/>
  <text x="230" y="492" text-anchor="middle" fill="#9ca3af" font-size="8">base</text>

  <!-- node: May 2019 -->
  <circle cx="250" cy="430" r="5" fill="#818cf8"/>
  <text x="250" y="468" text-anchor="middle" fill="#818cf8" font-size="8">node</text>

  <!-- consensus: Dec 2022 (split from network) -->
  <circle cx="420" cy="430" r="4" fill="#fb923c"/>
  <text x="420" y="468" text-anchor="middle" fill="#fb923c" font-size="8">consensus</text>

  <!-- api + cli: 2023 (split from node) -->
  <circle cx="478" cy="430" r="4" fill="#818cf8" opacity="0.6"/>
  <text x="478" y="468" text-anchor="middle" fill="#818cf8" font-size="8" opacity="0.7">api/cli</text>
</svg>
